<mxfile host="www.draw.io" modified="2020-01-06T02:44:50.620Z" agent="Mozilla/5.0 (Macintosh; Intel Mac OS X 10_14_0) AppleWebKit/537.36 (KHTML, like Gecko) Chrome/79.0.3945.88 Safari/537.36" etag="IJMuEQikiywrpA9XCZsW" version="12.4.8" type="github">
  <diagram id="bYv0EnGEMndnR-SFTeqx" name="Page-1">
    <mxGraphModel dx="1186" dy="741" grid="1" gridSize="10" guides="1" tooltips="1" connect="1" arrows="1" fold="1" page="1" pageScale="1" pageWidth="827" pageHeight="1169" math="0" shadow="0">
      <root>
        <mxCell id="0"/>
        <mxCell id="1" parent="0"/>
        <mxCell id="BmELw2zKFtl720FgS47a-3" value="Facade" style="swimlane;fontStyle=1;align=center;verticalAlign=top;childLayout=stackLayout;horizontal=1;startSize=26;horizontalStack=0;resizeParent=1;resizeParentMax=0;resizeLast=0;collapsible=1;marginBottom=0;fillColor=#F08E81;fontColor=#FFFFFF;" vertex="1" parent="1">
          <mxGeometry x="333" y="120" width="160" height="78" as="geometry"/>
        </mxCell>
        <mxCell id="BmELw2zKFtl720FgS47a-6" value="+ methodA()" style="text;strokeColor=none;fillColor=#F08E81;align=left;verticalAlign=top;spacingLeft=4;spacingRight=4;overflow=hidden;rotatable=0;points=[[0,0.5],[1,0.5]];portConstraint=eastwest;fontColor=#FFFFFF;" vertex="1" parent="BmELw2zKFtl720FgS47a-3">
          <mxGeometry y="26" width="160" height="26" as="geometry"/>
        </mxCell>
        <mxCell id="BmELw2zKFtl720FgS47a-7" value="+ methodB()" style="text;strokeColor=none;fillColor=#F08E81;align=left;verticalAlign=top;spacingLeft=4;spacingRight=4;overflow=hidden;rotatable=0;points=[[0,0.5],[1,0.5]];portConstraint=eastwest;fontColor=#FFFFFF;" vertex="1" parent="BmELw2zKFtl720FgS47a-3">
          <mxGeometry y="52" width="160" height="26" as="geometry"/>
        </mxCell>
        <mxCell id="BmELw2zKFtl720FgS47a-8" value="SubSystemA" style="swimlane;fontStyle=1;align=center;verticalAlign=top;childLayout=stackLayout;horizontal=1;startSize=26;horizontalStack=0;resizeParent=1;resizeParentMax=0;resizeLast=0;collapsible=1;marginBottom=0;fillColor=#F08E81;fontColor=#FFFFFF;" vertex="1" parent="1">
          <mxGeometry x="110" y="320" width="160" height="52" as="geometry"/>
        </mxCell>
        <mxCell id="BmELw2zKFtl720FgS47a-9" value="+ method()" style="text;strokeColor=none;fillColor=#F08E81;align=left;verticalAlign=top;spacingLeft=4;spacingRight=4;overflow=hidden;rotatable=0;points=[[0,0.5],[1,0.5]];portConstraint=eastwest;fontColor=#FFFFFF;" vertex="1" parent="BmELw2zKFtl720FgS47a-8">
          <mxGeometry y="26" width="160" height="26" as="geometry"/>
        </mxCell>
        <mxCell id="BmELw2zKFtl720FgS47a-11" value="SubSystemB" style="swimlane;fontStyle=1;align=center;verticalAlign=top;childLayout=stackLayout;horizontal=1;startSize=26;horizontalStack=0;resizeParent=1;resizeParentMax=0;resizeLast=0;collapsible=1;marginBottom=0;fillColor=#F08E81;fontColor=#FFFFFF;" vertex="1" parent="1">
          <mxGeometry x="333" y="320" width="160" height="52" as="geometry"/>
        </mxCell>
        <mxCell id="BmELw2zKFtl720FgS47a-12" value="+ method()" style="text;strokeColor=none;fillColor=#F08E81;align=left;verticalAlign=top;spacingLeft=4;spacingRight=4;overflow=hidden;rotatable=0;points=[[0,0.5],[1,0.5]];portConstraint=eastwest;fontColor=#FFFFFF;" vertex="1" parent="BmELw2zKFtl720FgS47a-11">
          <mxGeometry y="26" width="160" height="26" as="geometry"/>
        </mxCell>
        <mxCell id="BmELw2zKFtl720FgS47a-14" value="SubSystemC" style="swimlane;fontStyle=1;align=center;verticalAlign=top;childLayout=stackLayout;horizontal=1;startSize=26;horizontalStack=0;resizeParent=1;resizeParentMax=0;resizeLast=0;collapsible=1;marginBottom=0;fillColor=#F08E81;fontColor=#FFFFFF;" vertex="1" parent="1">
          <mxGeometry x="560" y="320" width="160" height="52" as="geometry"/>
        </mxCell>
        <mxCell id="BmELw2zKFtl720FgS47a-15" value="+ method()" style="text;strokeColor=none;fillColor=#F08E81;align=left;verticalAlign=top;spacingLeft=4;spacingRight=4;overflow=hidden;rotatable=0;points=[[0,0.5],[1,0.5]];portConstraint=eastwest;fontColor=#FFFFFF;" vertex="1" parent="BmELw2zKFtl720FgS47a-14">
          <mxGeometry y="26" width="160" height="26" as="geometry"/>
        </mxCell>
        <mxCell id="BmELw2zKFtl720FgS47a-17" value="" style="endArrow=open;endFill=1;endSize=12;html=1;fontColor=#FFFFFF;entryX=0.5;entryY=0;entryDx=0;entryDy=0;exitX=0.5;exitY=1;exitDx=0;exitDy=0;edgeStyle=orthogonalEdgeStyle;" edge="1" parent="1" source="BmELw2zKFtl720FgS47a-3" target="BmELw2zKFtl720FgS47a-8">
          <mxGeometry width="160" relative="1" as="geometry">
            <mxPoint x="70" y="200" as="sourcePoint"/>
            <mxPoint x="230" y="200" as="targetPoint"/>
          </mxGeometry>
        </mxCell>
        <mxCell id="BmELw2zKFtl720FgS47a-18" value="" style="endArrow=open;endFill=1;endSize=12;html=1;fontColor=#FFFFFF;entryX=0.5;entryY=0;entryDx=0;entryDy=0;exitX=0.5;exitY=1;exitDx=0;exitDy=0;edgeStyle=orthogonalEdgeStyle;" edge="1" parent="1" source="BmELw2zKFtl720FgS47a-3" target="BmELw2zKFtl720FgS47a-11">
          <mxGeometry width="160" relative="1" as="geometry">
            <mxPoint x="180" y="470" as="sourcePoint"/>
            <mxPoint x="340" y="470" as="targetPoint"/>
          </mxGeometry>
        </mxCell>
        <mxCell id="BmELw2zKFtl720FgS47a-19" value="" style="endArrow=open;endFill=1;endSize=12;html=1;fontColor=#FFFFFF;exitX=0.5;exitY=1;exitDx=0;exitDy=0;entryX=0.5;entryY=0;entryDx=0;entryDy=0;edgeStyle=orthogonalEdgeStyle;" edge="1" parent="1" source="BmELw2zKFtl720FgS47a-3" target="BmELw2zKFtl720FgS47a-14">
          <mxGeometry width="160" relative="1" as="geometry">
            <mxPoint x="130" y="560" as="sourcePoint"/>
            <mxPoint x="290" y="560" as="targetPoint"/>
          </mxGeometry>
        </mxCell>
      </root>
    </mxGraphModel>
  </diagram>
</mxfile>
